<svg width="1000" height="700" xmlns="http://www.w3.org/2000/svg">
  <defs>
    <linearGradient id="userspaceGrad" x1="0%" y1="0%" x2="100%" y2="100%">
      <stop offset="0%" style="stop-color:#2196F3;stop-opacity:1" />
      <stop offset="100%" style="stop-color:#1976D2;stop-opacity:1" />
    </linearGradient>
    <linearGradient id="kernelspaceGrad" x1="0%" y1="0%" x2="100%" y2="100%">
      <stop offset="0%" style="stop-color:#9C27B0;stop-opacity:1" />
      <stop offset="100%" style="stop-color:#7B1FA2;stop-opacity:1" />
    </linearGradient>
    <linearGradient id="appGrad" x1="0%" y1="0%" x2="100%" y2="100%">
      <stop offset="0%" style="stop-color:#FF9800;stop-opacity:1" />
      <stop offset="100%" style="stop-color:#F57C00;stop-opacity:1" />
    </linearGradient>
    <linearGradient id="hardwareGrad" x1="0%" y1="0%" x2="100%" y2="100%">
      <stop offset="0%" style="stop-color:#424242;stop-opacity:1" />
      <stop offset="100%" style="stop-color:#212121;stop-opacity:1" />
    </linearGradient>
  </defs>
  
  <!-- 标题 -->
  <text x="500" y="30" text-anchor="middle" font-family="Arial, sans-serif" font-size="24" font-weight="bold" fill="#333">GPU虚拟化技术对比</text>
  
  <!-- 左侧：用户态虚拟化 -->
  <text x="250" y="60" text-anchor="middle" font-family="Arial, sans-serif" font-size="20" font-weight="bold" fill="#1976D2">用户态资源管理 (HAMi)</text>
  
  <!-- 右侧：内核态虚拟化 -->
  <text x="750" y="60" text-anchor="middle" font-family="Arial, sans-serif" font-size="20" font-weight="bold" fill="#7B1FA2">内核态虚拟化 (vGPU)</text>
  
  <!-- 分割线 -->
  <line x1="500" y1="70" x2="500" y2="650" stroke="#E0E0E0" stroke-width="2" stroke-dasharray="5,5"/>
  
  <!-- 左侧架构 -->
  <!-- 应用层 -->
  <rect x="50" y="80" width="400" height="60" fill="url(#appGrad)" stroke="#F57C00" stroke-width="2" rx="8"/>
  <text x="70" y="105" font-family="Arial, sans-serif" font-size="14" font-weight="bold" fill="white">应用层</text>
  <rect x="70" y="110" width="80" height="25" fill="#FFF3E0" stroke="#FF9800" stroke-width="1" rx="3"/>
  <text x="110" y="127" text-anchor="middle" font-family="Arial, sans-serif" font-size="10" fill="#333">PyTorch</text>
  <rect x="160" y="110" width="80" height="25" fill="#FFF3E0" stroke="#FF9800" stroke-width="1" rx="3"/>
  <text x="200" y="127" text-anchor="middle" font-family="Arial, sans-serif" font-size="10" fill="#333">TensorFlow</text>
  <rect x="250" y="110" width="80" height="25" fill="#FFF3E0" stroke="#FF9800" stroke-width="1" rx="3"/>
  <text x="290" y="127" text-anchor="middle" font-family="Arial, sans-serif" font-size="10" fill="#333">CUDA App</text>
  <rect x="340" y="110" width="80" height="25" fill="#FFF3E0" stroke="#FF9800" stroke-width="1" rx="3"/>
  <text x="380" y="127" text-anchor="middle" font-family="Arial, sans-serif" font-size="10" fill="#333">推理服务</text>
  
  <!-- 用户态虚拟化层 -->
  <rect x="50" y="160" width="400" height="120" fill="url(#userspaceGrad)" stroke="#1976D2" stroke-width="2" rx="8"/>
  <text x="70" y="185" font-family="Arial, sans-serif" font-size="14" font-weight="bold" fill="white">HAMi 资源管理层</text>
  
  <rect x="70" y="195" width="90" height="40" fill="#E3F2FD" stroke="#2196F3" stroke-width="1" rx="3"/>
  <text x="115" y="210" text-anchor="middle" font-family="Arial, sans-serif" font-size="10" font-weight="bold" fill="#333">API拦截</text>
  <text x="115" y="222" text-anchor="middle" font-family="Arial, sans-serif" font-size="9" fill="#666">CUDA Hook</text>
  <text x="115" y="232" text-anchor="middle" font-family="Arial, sans-serif" font-size="9" fill="#666">动态库替换</text>
  
  <rect x="170" y="195" width="90" height="40" fill="#E3F2FD" stroke="#2196F3" stroke-width="1" rx="3"/>
  <text x="215" y="210" text-anchor="middle" font-family="Arial, sans-serif" font-size="10" font-weight="bold" fill="#333">资源管理</text>
  <text x="215" y="222" text-anchor="middle" font-family="Arial, sans-serif" font-size="9" fill="#666">显存分配</text>
  <text x="215" y="232" text-anchor="middle" font-family="Arial, sans-serif" font-size="9" fill="#666">计算调度</text>
  
  <rect x="270" y="195" width="90" height="40" fill="#E3F2FD" stroke="#2196F3" stroke-width="1" rx="3"/>
  <text x="315" y="210" text-anchor="middle" font-family="Arial, sans-serif" font-size="10" font-weight="bold" fill="#333">任务调度</text>
  <text x="315" y="222" text-anchor="middle" font-family="Arial, sans-serif" font-size="9" fill="#666">优先级调度</text>
  <text x="315" y="232" text-anchor="middle" font-family="Arial, sans-serif" font-size="9" fill="#666">负载均衡</text>
  
  <rect x="370" y="195" width="70" height="40" fill="#E3F2FD" stroke="#2196F3" stroke-width="1" rx="3"/>
  <text x="405" y="210" text-anchor="middle" font-family="Arial, sans-serif" font-size="10" font-weight="bold" fill="#333">监控</text>
  <text x="405" y="222" text-anchor="middle" font-family="Arial, sans-serif" font-size="9" fill="#666">性能监控</text>
  <text x="405" y="232" text-anchor="middle" font-family="Arial, sans-serif" font-size="9" fill="#666">资源统计</text>
  
  <!-- GPU资源配额池 -->
  <rect x="70" y="245" width="360" height="25" fill="#E8F5E8" stroke="#4CAF50" stroke-width="1" rx="3"/>
  <text x="80" y="260" font-family="Arial, sans-serif" font-size="10" font-weight="bold" fill="#333">GPU资源配额池</text>
  <rect x="180" y="248" width="40" height="19" fill="#C8E6C9" stroke="#4CAF50" stroke-width="1" rx="2"/>
  <text x="200" y="260" text-anchor="middle" font-family="Arial, sans-serif" font-size="8" fill="#333">配额-1</text>
  <rect x="225" y="248" width="40" height="19" fill="#C8E6C9" stroke="#4CAF50" stroke-width="1" rx="2"/>
  <text x="245" y="260" text-anchor="middle" font-family="Arial, sans-serif" font-size="8" fill="#333">配额-2</text>
  <rect x="270" y="248" width="40" height="19" fill="#C8E6C9" stroke="#4CAF50" stroke-width="1" rx="2"/>
  <text x="290" y="260" text-anchor="middle" font-family="Arial, sans-serif" font-size="8" fill="#333">配额-3</text>
  <rect x="315" y="248" width="40" height="19" fill="#C8E6C9" stroke="#4CAF50" stroke-width="1" rx="2"/>
  <text x="335" y="260" text-anchor="middle" font-family="Arial, sans-serif" font-size="8" fill="#333">配额-N</text>
  
  <!-- 系统层 -->
  <rect x="50" y="300" width="400" height="60" fill="#4CAF50" stroke="#45a049" stroke-width="2" rx="8"/>
  <text x="70" y="325" font-family="Arial, sans-serif" font-size="14" font-weight="bold" fill="white">系统层</text>
  <rect x="70" y="330" width="70" height="25" fill="#E8F5E8" stroke="#4CAF50" stroke-width="1" rx="3"/>
  <text x="105" y="347" text-anchor="middle" font-family="Arial, sans-serif" font-size="10" fill="#333">OS内核</text>
  <rect x="150" y="330" width="70" height="25" fill="#E8F5E8" stroke="#4CAF50" stroke-width="1" rx="3"/>
  <text x="185" y="347" text-anchor="middle" font-family="Arial, sans-serif" font-size="10" fill="#333">GPU驱动</text>
  <rect x="230" y="330" width="70" height="25" fill="#E8F5E8" stroke="#4CAF50" stroke-width="1" rx="3"/>
  <text x="265" y="347" text-anchor="middle" font-family="Arial, sans-serif" font-size="10" fill="#333">CUDA RT</text>
  <rect x="310" y="330" width="70" height="25" fill="#E8F5E8" stroke="#4CAF50" stroke-width="1" rx="3"/>
  <text x="345" y="347" text-anchor="middle" font-family="Arial, sans-serif" font-size="10" fill="#333">容器RT</text>
  <rect x="390" y="330" width="50" height="25" fill="#E8F5E8" stroke="#4CAF50" stroke-width="1" rx="3"/>
  <text x="415" y="347" text-anchor="middle" font-family="Arial, sans-serif" font-size="10" fill="#333">K8s</text>
  
  <!-- 硬件层 -->
  <rect x="50" y="380" width="400" height="60" fill="url(#hardwareGrad)" stroke="#212121" stroke-width="2" rx="8"/>
  <text x="70" y="405" font-family="Arial, sans-serif" font-size="14" font-weight="bold" fill="white">硬件层</text>
  <rect x="70" y="410" width="80" height="25" fill="#666" stroke="#333" stroke-width="1" rx="3"/>
  <text x="110" y="427" text-anchor="middle" font-family="Arial, sans-serif" font-size="10" fill="white">GPU 1</text>
  <rect x="160" y="410" width="80" height="25" fill="#666" stroke="#333" stroke-width="1" rx="3"/>
  <text x="200" y="427" text-anchor="middle" font-family="Arial, sans-serif" font-size="10" fill="white">GPU 2</text>
  <rect x="250" y="410" width="80" height="25" fill="#666" stroke="#333" stroke-width="1" rx="3"/>
  <text x="290" y="427" text-anchor="middle" font-family="Arial, sans-serif" font-size="10" fill="white">GPU 3</text>
  <rect x="340" y="410" width="80" height="25" fill="#666" stroke="#333" stroke-width="1" rx="3"/>
  <text x="380" y="427" text-anchor="middle" font-family="Arial, sans-serif" font-size="10" fill="white">GPU N</text>
  
  <!-- 右侧架构 -->
  <!-- 应用层 -->
  <rect x="550" y="80" width="400" height="60" fill="url(#appGrad)" stroke="#F57C00" stroke-width="2" rx="8"/>
  <text x="570" y="105" font-family="Arial, sans-serif" font-size="14" font-weight="bold" fill="white">应用层</text>
  <rect x="570" y="110" width="70" height="25" fill="#FFF3E0" stroke="#FF9800" stroke-width="1" rx="3"/>
  <text x="605" y="127" text-anchor="middle" font-family="Arial, sans-serif" font-size="10" fill="#333">VM 1</text>
  <rect x="650" y="110" width="70" height="25" fill="#FFF3E0" stroke="#FF9800" stroke-width="1" rx="3"/>
  <text x="685" y="127" text-anchor="middle" font-family="Arial, sans-serif" font-size="10" fill="#333">VM 2</text>
  <rect x="730" y="110" width="70" height="25" fill="#FFF3E0" stroke="#FF9800" stroke-width="1" rx="3"/>
  <text x="765" y="127" text-anchor="middle" font-family="Arial, sans-serif" font-size="10" fill="#333">VM 3</text>
  <rect x="810" y="110" width="70" height="25" fill="#FFF3E0" stroke="#FF9800" stroke-width="1" rx="3"/>
  <text x="845" y="127" text-anchor="middle" font-family="Arial, sans-serif" font-size="10" fill="#333">容器</text>
  <rect x="890" y="110" width="50" height="25" fill="#FFF3E0" stroke="#FF9800" stroke-width="1" rx="3"/>
  <text x="915" y="127" text-anchor="middle" font-family="Arial, sans-serif" font-size="10" fill="#333">裸机</text>
  
  <!-- 虚拟化管理层 -->
  <rect x="550" y="160" width="400" height="60" fill="url(#kernelspaceGrad)" stroke="#7B1FA2" stroke-width="2" rx="8"/>
  <text x="570" y="185" font-family="Arial, sans-serif" font-size="14" font-weight="bold" fill="white">虚拟化管理层</text>
  <rect x="570" y="190" width="80" height="25" fill="#F3E5F5" stroke="#9C27B0" stroke-width="1" rx="3"/>
  <text x="610" y="207" text-anchor="middle" font-family="Arial, sans-serif" font-size="10" fill="#333">Hypervisor</text>
  <rect x="660" y="190" width="80" height="25" fill="#F3E5F5" stroke="#9C27B0" stroke-width="1" rx="3"/>
  <text x="700" y="207" text-anchor="middle" font-family="Arial, sans-serif" font-size="10" fill="#333">vGPU管理</text>
  <rect x="750" y="190" width="80" height="25" fill="#F3E5F5" stroke="#9C27B0" stroke-width="1" rx="3"/>
  <text x="790" y="207" text-anchor="middle" font-family="Arial, sans-serif" font-size="10" fill="#333">资源管理</text>
  <rect x="840" y="190" width="80" height="25" fill="#F3E5F5" stroke="#9C27B0" stroke-width="1" rx="3"/>
  <text x="880" y="207" text-anchor="middle" font-family="Arial, sans-serif" font-size="10" fill="#333">监控策略</text>
  
  <!-- 内核虚拟化层 -->
  <rect x="550" y="240" width="400" height="80" fill="#4CAF50" stroke="#45a049" stroke-width="2" rx="8"/>
  <text x="570" y="265" font-family="Arial, sans-serif" font-size="14" font-weight="bold" fill="white">内核虚拟化层</text>
  <rect x="570" y="270" width="70" height="40" fill="#E8F5E8" stroke="#4CAF50" stroke-width="1" rx="3"/>
  <text x="605" y="285" text-anchor="middle" font-family="Arial, sans-serif" font-size="10" font-weight="bold" fill="#333">内核模块</text>
  <text x="605" y="295" text-anchor="middle" font-family="Arial, sans-serif" font-size="8" fill="#666">驱动扩展</text>
  <text x="605" y="305" text-anchor="middle" font-family="Arial, sans-serif" font-size="8" fill="#666">内存管理</text>
  
  <rect x="650" y="270" width="70" height="40" fill="#E8F5E8" stroke="#4CAF50" stroke-width="1" rx="3"/>
  <text x="685" y="285" text-anchor="middle" font-family="Arial, sans-serif" font-size="10" font-weight="bold" fill="#333">SR-IOV</text>
  <text x="685" y="295" text-anchor="middle" font-family="Arial, sans-serif" font-size="8" fill="#666">PF/VF</text>
  <text x="685" y="305" text-anchor="middle" font-family="Arial, sans-serif" font-size="8" fill="#666">硬件隔离</text>
  
  <rect x="730" y="270" width="70" height="40" fill="#E8F5E8" stroke="#4CAF50" stroke-width="1" rx="3"/>
  <text x="765" y="285" text-anchor="middle" font-family="Arial, sans-serif" font-size="10" font-weight="bold" fill="#333">IOMMU</text>
  <text x="765" y="295" text-anchor="middle" font-family="Arial, sans-serif" font-size="8" fill="#666">地址转换</text>
  <text x="765" y="305" text-anchor="middle" font-family="Arial, sans-serif" font-size="8" fill="#666">DMA重映射</text>
  
  <rect x="810" y="270" width="70" height="40" fill="#E8F5E8" stroke="#4CAF50" stroke-width="1" rx="3"/>
  <text x="845" y="285" text-anchor="middle" font-family="Arial, sans-serif" font-size="10" font-weight="bold" fill="#333">GPU驱动</text>
  <text x="845" y="295" text-anchor="middle" font-family="Arial, sans-serif" font-size="8" fill="#666">NVIDIA</text>
  <text x="845" y="305" text-anchor="middle" font-family="Arial, sans-serif" font-size="8" fill="#666">虚拟化支持</text>
  
  <!-- 硬件层 -->
  <rect x="550" y="340" width="400" height="100" fill="url(#hardwareGrad)" stroke="#212121" stroke-width="2" rx="8"/>
  <text x="570" y="365" font-family="Arial, sans-serif" font-size="14" font-weight="bold" fill="white">硬件层</text>
  <rect x="570" y="370" width="70" height="30" fill="#666" stroke="#333" stroke-width="1" rx="3"/>
  <text x="605" y="385" text-anchor="middle" font-family="Arial, sans-serif" font-size="10" fill="white">CPU</text>
  <text x="605" y="395" text-anchor="middle" font-family="Arial, sans-serif" font-size="8" fill="#ccc">VT-x/AMD-V</text>
  
  <rect x="650" y="370" width="70" height="30" fill="#666" stroke="#333" stroke-width="1" rx="3"/>
  <text x="685" y="385" text-anchor="middle" font-family="Arial, sans-serif" font-size="10" fill="white">内存</text>
  <text x="685" y="395" text-anchor="middle" font-family="Arial, sans-serif" font-size="8" fill="#ccc">DDR4/5</text>
  
  <rect x="730" y="370" width="70" height="30" fill="#666" stroke="#333" stroke-width="1" rx="3"/>
  <text x="765" y="385" text-anchor="middle" font-family="Arial, sans-serif" font-size="10" fill="white">PCIe</text>
  <text x="765" y="395" text-anchor="middle" font-family="Arial, sans-serif" font-size="8" fill="#ccc">4.0/5.0</text>
  
  <rect x="810" y="370" width="60" height="30" fill="#666" stroke="#333" stroke-width="1" rx="3"/>
  <text x="840" y="385" text-anchor="middle" font-family="Arial, sans-serif" font-size="10" fill="white">GPU</text>
  <text x="840" y="395" text-anchor="middle" font-family="Arial, sans-serif" font-size="8" fill="#ccc">Tesla/Pro</text>
  
  <rect x="880" y="370" width="60" height="30" fill="#666" stroke="#333" stroke-width="1" rx="3"/>
  <text x="910" y="385" text-anchor="middle" font-family="Arial, sans-serif" font-size="10" fill="white">GPU</text>
  <text x="910" y="395" text-anchor="middle" font-family="Arial, sans-serif" font-size="8" fill="#ccc">Radeon Pro</text>
  
  <!-- 对比表格 -->
  <rect x="50" y="460" width="900" height="180" fill="#FAFAFA" stroke="#E0E0E0" stroke-width="1" rx="8"/>
  <text x="500" y="485" text-anchor="middle" font-family="Arial, sans-serif" font-size="16" font-weight="bold" fill="#333">技术特性对比</text>
  
  <!-- 表格头 -->
  <rect x="70" y="500" width="120" height="30" fill="#E0E0E0" stroke="#BDBDBD" stroke-width="1"/>
  <text x="130" y="520" text-anchor="middle" font-family="Arial, sans-serif" font-size="12" font-weight="bold" fill="#333">对比维度</text>
  
  <rect x="190" y="500" width="360" height="30" fill="#E3F2FD" stroke="#2196F3" stroke-width="1"/>
  <text x="370" y="520" text-anchor="middle" font-family="Arial, sans-serif" font-size="12" font-weight="bold" fill="#1976D2">用户态资源管理 (HAMi)</text>
  
  <rect x="550" y="500" width="360" height="30" fill="#F3E5F5" stroke="#9C27B0" stroke-width="1"/>
  <text x="730" y="520" text-anchor="middle" font-family="Arial, sans-serif" font-size="12" font-weight="bold" fill="#7B1FA2">内核态虚拟化 (vGPU)</text>
  
  <!-- 表格内容 -->
  <g id="table-rows">
    <!-- 部署复杂度 -->
    <rect x="70" y="530" width="120" height="25" fill="#F5F5F5" stroke="#E0E0E0" stroke-width="1"/>
    <text x="130" y="547" text-anchor="middle" font-family="Arial, sans-serif" font-size="11" fill="#333">部署复杂度</text>
    <rect x="190" y="530" width="360" height="25" fill="#E8F5E8" stroke="#4CAF50" stroke-width="1"/>
    <text x="370" y="547" text-anchor="middle" font-family="Arial, sans-serif" font-size="11" fill="#333">低 - 无需内核模块，容器化部署</text>
    <rect x="550" y="530" width="360" height="25" fill="#FFEBEE" stroke="#F44336" stroke-width="1"/>
    <text x="730" y="547" text-anchor="middle" font-family="Arial, sans-serif" font-size="11" fill="#333">高 - 需要专用硬件和驱动支持</text>
    
    <!-- 硬件要求 -->
    <rect x="70" y="555" width="120" height="25" fill="#F5F5F5" stroke="#E0E0E0" stroke-width="1"/>
    <text x="130" y="572" text-anchor="middle" font-family="Arial, sans-serif" font-size="11" fill="#333">硬件要求</text>
    <rect x="190" y="555" width="360" height="25" fill="#E8F5E8" stroke="#4CAF50" stroke-width="1"/>
    <text x="370" y="572" text-anchor="middle" font-family="Arial, sans-serif" font-size="11" fill="#333">通用GPU - 支持CUDA/ROCm即可</text>
    <rect x="550" y="555" width="360" height="25" fill="#FFEBEE" stroke="#F44336" stroke-width="1"/>
    <text x="730" y="572" text-anchor="middle" font-family="Arial, sans-serif" font-size="11" fill="#333">专用GPU - Tesla/Quadro/Radeon Pro</text>
    
    <!-- 资源隔离 -->
    <rect x="70" y="580" width="120" height="25" fill="#F5F5F5" stroke="#E0E0E0" stroke-width="1"/>
    <text x="130" y="597" text-anchor="middle" font-family="Arial, sans-serif" font-size="11" fill="#333">资源隔离</text>
    <rect x="190" y="580" width="360" height="25" fill="#FFF3E0" stroke="#FF9800" stroke-width="1"/>
    <text x="370" y="597" text-anchor="middle" font-family="Arial, sans-serif" font-size="11" fill="#333">软件隔离 - API级别拦截和调度</text>
    <rect x="550" y="580" width="360" height="25" fill="#E8F5E8" stroke="#4CAF50" stroke-width="1"/>
    <text x="730" y="597" text-anchor="middle" font-family="Arial, sans-serif" font-size="11" fill="#333">硬件隔离 - SR-IOV物理分割</text>
    
    <!-- 性能开销 -->
    <rect x="70" y="605" width="120" height="25" fill="#F5F5F5" stroke="#E0E0E0" stroke-width="1"/>
    <text x="130" y="622" text-anchor="middle" font-family="Arial, sans-serif" font-size="11" fill="#333">性能开销</text>
    <rect x="190" y="605" width="360" height="25" fill="#FFF3E0" stroke="#FF9800" stroke-width="1"/>
    <text x="370" y="622" text-anchor="middle" font-family="Arial, sans-serif" font-size="11" fill="#333">中等 - API拦截和调度开销</text>
    <rect x="550" y="605" width="360" height="25" fill="#E8F5E8" stroke="#4CAF50" stroke-width="1"/>
    <text x="730" y="622" text-anchor="middle" font-family="Arial, sans-serif" font-size="11" fill="#333">低 - 接近原生性能</text>
  </g>
  
  <!-- 箭头指示 -->
  <defs>
    <marker id="arrowhead" markerWidth="10" markerHeight="7" refX="9" refY="3.5" orient="auto">
      <polygon points="0 0, 10 3.5, 0 7" fill="#666" />
    </marker>
  </defs>
  
  <!-- 左侧数据流 -->
  <line x1="250" y1="140" x2="250" y2="160" stroke="#666" stroke-width="2" marker-end="url(#arrowhead)"/>
  <line x1="250" y1="280" x2="250" y2="300" stroke="#666" stroke-width="2" marker-end="url(#arrowhead)"/>
  <line x1="250" y1="360" x2="250" y2="380" stroke="#666" stroke-width="2" marker-end="url(#arrowhead)"/>
  
  <!-- 右侧数据流 -->
  <line x1="750" y1="140" x2="750" y2="160" stroke="#666" stroke-width="2" marker-end="url(#arrowhead)"/>
  <line x1="750" y1="220" x2="750" y2="240" stroke="#666" stroke-width="2" marker-end="url(#arrowhead)"/>
  <line x1="750" y1="320" x2="750" y2="340" stroke="#666" stroke-width="2" marker-end="url(#arrowhead)"/>
</svg>